<?xml version="1.0" encoding="UTF-8" standalone="no"?>
<svg
   width="42"
   height="42"
   version="1.1"
   id="svg21"
   sodipodi:docname="logo.svg"
   inkscape:export-filename="logo.svg"
   inkscape:export-xdpi="15.75"
   inkscape:export-ydpi="15.75"
   inkscape:version="1.2.2 (b0a8486541, 2022-12-01)"
   xmlns:inkscape="http://www.inkscape.org/namespaces/inkscape"
   xmlns:sodipodi="http://sodipodi.sourceforge.net/DTD/sodipodi-0.dtd"
   xmlns:xlink="http://www.w3.org/1999/xlink"
   xmlns="http://www.w3.org/2000/svg"
   xmlns:svg="http://www.w3.org/2000/svg">
  <sodipodi:namedview
     id="namedview23"
     pagecolor="#ffffff"
     bordercolor="#000000"
     borderopacity="0.25"
     inkscape:showpageshadow="2"
     inkscape:pageopacity="0.0"
     inkscape:pagecheckerboard="0"
     inkscape:deskcolor="#d1d1d1"
     showgrid="false"
     inkscape:zoom="3.078125"
     inkscape:cx="-1.4619289"
     inkscape:cy="28.263959"
     inkscape:window-width="1920"
     inkscape:window-height="991"
     inkscape:window-x="0"
     inkscape:window-y="0"
     inkscape:window-maximized="1"
     inkscape:current-layer="svg21" />
  <defs
     id="defs15">
    <linearGradient
       id="Gradient"
       x1="0"
       x2="0"
       y1="0"
       y2="256"
       gradientUnits="userSpaceOnUse"
       gradientTransform="scale(0.1640625)">
      <stop
         offset="0%"
         style="stop-color:#C061CB;stop-opacity:1"
         id="stop2" />
      <stop
         offset="100%"
         style="stop-color:#613583;stop-opacity:1"
         id="stop4" />
    </linearGradient>
    <filter
       id="alpha-to-white"
       x="0"
       y="0"
       width="1"
       height="1">
      <feColorMatrix
         in="SourceGraphic"
         type="matrix"
         values="0 0 0 0 1 0 0 0 0 1 0 0 0 0 1 0 0 0 1 0"
         id="feColorMatrix7" />
    </filter>
    <g
       id="child-svg">
      <svg
         width="16"
         height="16"
         enable-background="new"
         version="1.1"
         id="svg12">
        <path
           d="M 5.8812,3.0087 C 5.6299,3.039845 5.42131,3.14902 5.25308,3.33801 5.08485,3.527 5,3.74934 5,4.00272 v 7.9948 c 0,0.25338 0.084865,0.47572 0.25308,0.66471 0.16823,0.18899 0.37685,0.29815 0.62812,0.32931 0.2513,0.03116 0.47935,-0.0244 0.68911,-0.1677 l 5.7994,-3.9973 c 0.18484,-0.12669 0.31359,-0.29945 0.38418,-0.5092 0.07063,-0.21183 0.07063,-0.42139 0,-0.63118 C 12.68326,7.4764 12.55553,7.30571 12.37275,7.17696 L 6.57025,3.17646 C 6.36118,3.03108 6.13175,2.97691 5.88114,3.00876 Z"
           fill="#363636"
           stroke-width="1.5611"
           id="path10" />
      </svg>
    </g>
  </defs>
  <rect
     width="42"
     height="42"
     fill="url(#Gradient)"
     ry="21"
     x="0"
     y="0"
     id="rect17"
     style="fill:url(#Gradient);stroke-width:0.164062" />
  <use
     xlink:href="#child-svg"
     filter="url(#alpha-to-white)"
     transform="matrix(1.3125,0,0,1.3125,10.5,10.5)"
     id="use19" />
</svg>
